<svg xmlns="http://www.w3.org/2000/svg" xmlns:xlink="http://www.w3.org/1999/xlink" width="1080" zoomAndPan="magnify" viewBox="0 0 810 809.999993" height="1080" preserveAspectRatio="xMidYMid meet" version="1.0"><defs><clipPath id="afe1d0e332"><path d="M 170.652344 299.414062 L 291 299.414062 L 291 463 L 170.652344 463 Z M 170.652344 299.414062 " clip-rule="nonzero"/></clipPath><clipPath id="f60c83bea8"><path d="M 491 352 L 600 352 L 600 510.914062 L 491 510.914062 Z M 491 352 " clip-rule="nonzero"/></clipPath><clipPath id="d031113eef"><path d="M 616 327 L 639.402344 327 L 639.402344 351 L 616 351 Z M 616 327 " clip-rule="nonzero"/></clipPath></defs><g clip-path="url(#afe1d0e332)"><path fill="#034041" d="M 185.636719 391.460938 C 185.21875 385.210938 185.21875 378.960938 185.21875 372.71875 C 185.636719 347.519531 190.214844 299.628906 223.539062 299.414062 C 242.066406 299.207031 250.191406 313.789062 250.191406 329.816406 C 250.191406 352.726562 233.324219 380.628906 211.664062 401.449219 C 212.28125 408.125 213.382812 414.722656 214.964844 421.234375 L 257.242188 354.386719 L 285.769531 354.386719 L 258.695312 397.082031 C 283.894531 414.988281 290.972656 443.933594 290.972656 458.511719 L 265.976562 458.511719 C 265.976562 449.136719 261.386719 430.191406 245.390625 418.324219 L 221.449219 456.019531 C 214.996094 465.179688 204.796875 464.769531 199.390625 454.769531 C 195.019531 446.683594 191.304688 434.183594 188.777344 419.367188 C 186.015625 421.121094 183.171875 422.71875 180.238281 424.164062 L 170.851562 402.074219 C 176.261719 398.539062 181.054688 394.996094 185.636719 391.460938 Z M 225.414062 330.234375 C 225.414062 324.824219 224.367188 323.15625 222.472656 323.15625 C 214.382812 323.15625 211.015625 352.726562 210.390625 367.511719 C 221.039062 353.976562 225.414062 341.273438 225.414062 330.234375 Z M 225.414062 330.234375 " fill-opacity="1" fill-rule="nonzero"/></g><path fill="#2ecbaa" d="M 344.316406 438.101562 C 352.019531 438.101562 353.875 422.484375 353.875 415.824219 C 349.078125 402.289062 345.75 386.878906 345.75 372.511719 C 345.75 363.96875 347.625 348.351562 359.078125 348.351562 C 376.777344 348.351562 380.730469 384.378906 380.730469 396.878906 C 380.730469 401.054688 380.523438 405.222656 380.105469 409.375 C 381.152344 416.867188 389.664062 437.902344 400.691406 438.109375 C 407.148438 438.109375 410.898438 431.03125 413.398438 426.449219 C 400.488281 416.039062 391.949219 400.214844 391.949219 383.34375 C 391.949219 365.644531 401.507812 350.652344 420.476562 350.652344 C 440.46875 350.652344 449.425781 367.726562 449.425781 385.636719 C 449.3125 395.917969 447.523438 405.902344 444.058594 415.582031 L 449.886719 416 L 449.886719 439.949219 C 444.632812 439.917969 439.484375 439.15625 434.449219 437.660156 C 426.359375 451.195312 414.875 462.019531 398.214844 462.019531 C 386.347656 462.019531 376.5625 454.527344 369.480469 445.574219 C 363.859375 454.941406 355.511719 462.019531 344.074219 462.019531 C 304.304688 462.019531 293.054688 382.894531 293.054688 354.359375 L 318.050781 354.359375 C 318.074219 403.746094 332.859375 438.101562 344.316406 438.101562 Z M 424.457031 385.003906 C 424.457031 380.21875 423.832031 374.59375 420.707031 374.59375 C 417.582031 374.59375 416.957031 380.421875 416.957031 384.796875 C 416.957031 392.710938 418.832031 398.765625 422.160156 403.539062 C 423.617188 397.445312 424.398438 391.265625 424.507812 385.003906 Z M 424.457031 385.003906 " fill-opacity="1" fill-rule="nonzero"/><path fill="#2ecbaa" d="M 470.710938 310.441406 C 471.613281 310.441406 472.507812 310.53125 473.394531 310.703125 C 474.277344 310.878906 475.140625 311.140625 475.972656 311.484375 C 476.808594 311.832031 477.601562 312.253906 478.351562 312.757812 C 479.101562 313.257812 479.796875 313.828125 480.4375 314.464844 C 481.074219 315.105469 481.644531 315.800781 482.144531 316.550781 C 482.648438 317.300781 483.070312 318.09375 483.417969 318.929688 C 483.761719 319.761719 484.019531 320.625 484.195312 321.507812 C 484.371094 322.394531 484.460938 323.289062 484.457031 324.191406 C 484.480469 325.109375 484.410156 326.015625 484.25 326.917969 C 484.089844 327.820312 483.839844 328.699219 483.503906 329.550781 C 483.167969 330.402344 482.753906 331.214844 482.253906 331.984375 C 481.757812 332.75 481.1875 333.464844 480.546875 334.121094 C 479.90625 334.773438 479.207031 335.359375 478.449219 335.875 C 477.695312 336.390625 476.894531 336.828125 476.046875 337.183594 C 475.203125 337.539062 474.332031 337.804688 473.433594 337.988281 C 472.535156 338.167969 471.628906 338.257812 470.714844 338.257812 C 469.796875 338.257812 468.890625 338.167969 467.992188 337.988281 C 467.09375 337.804688 466.222656 337.539062 465.378906 337.183594 C 464.535156 336.828125 463.734375 336.390625 462.976562 335.875 C 462.21875 335.359375 461.519531 334.773438 460.878906 334.121094 C 460.238281 333.464844 459.671875 332.75 459.171875 331.984375 C 458.675781 331.214844 458.257812 330.402344 457.921875 329.550781 C 457.585938 328.699219 457.335938 327.820312 457.175781 326.917969 C 457.015625 326.015625 456.945312 325.109375 456.96875 324.191406 C 456.96875 323.289062 457.054688 322.394531 457.230469 321.511719 C 457.40625 320.625 457.664062 319.765625 458.011719 318.929688 C 458.355469 318.097656 458.777344 317.304688 459.277344 316.550781 C 459.78125 315.800781 460.351562 315.105469 460.988281 314.46875 C 461.625 313.828125 462.320312 313.261719 463.070312 312.757812 C 463.820312 312.257812 464.613281 311.832031 465.449219 311.488281 C 466.28125 311.144531 467.140625 310.882812 468.027344 310.707031 C 468.914062 310.53125 469.808594 310.441406 470.710938 310.441406 Z M 458.210938 354.382812 L 483.207031 354.382812 L 483.207031 458.511719 L 458.210938 458.511719 Z M 458.210938 354.382812 " fill-opacity="1" fill-rule="nonzero"/><g clip-path="url(#f60c83bea8)"><path fill="#2ecbaa" d="M 544.011719 352.933594 C 557.128906 352.933594 567.121094 356.683594 574.203125 363.136719 L 574.203125 354.386719 L 599.199219 354.386719 L 599.199219 510.574219 L 574.203125 510.574219 L 574.203125 449.976562 C 567.121094 456.433594 557.128906 460.386719 544.011719 460.386719 C 513.191406 460.386719 491.53125 438.726562 491.53125 406.449219 C 491.53125 374.410156 513.191406 352.933594 544.011719 352.933594 Z M 545.261719 437.484375 C 562.753906 437.484375 574.203125 426.039062 574.203125 406.671875 C 574.203125 387.304688 562.730469 375.878906 545.261719 375.878906 C 527.976562 375.878906 516.523438 387.335938 516.523438 406.699219 C 516.523438 426.066406 527.976562 437.476562 545.261719 437.476562 Z M 545.261719 437.484375 " fill-opacity="1" fill-rule="nonzero"/></g><g clip-path="url(#d031113eef)"><path fill="#2ecbaa" d="M 630.609375 339.976562 C 631.113281 339.734375 631.523438 339.386719 631.84375 338.925781 C 632.363281 338.183594 632.609375 337.359375 632.578125 336.457031 C 632.59375 335.828125 632.472656 335.230469 632.226562 334.65625 C 631.992188 334.109375 631.644531 333.65625 631.175781 333.292969 C 630.679688 332.902344 630.117188 332.65625 629.492188 332.558594 C 629.324219 332.558594 629.160156 332.515625 629.007812 332.507812 L 623.765625 332.507812 L 623.765625 344.917969 L 625.433594 344.917969 L 625.433594 340.382812 L 628.902344 340.382812 L 631.109375 344.925781 L 633.007812 344.925781 Z M 629.292969 338.699219 C 629.175781 338.730469 629.058594 338.75 628.941406 338.757812 C 628.828125 338.765625 628.714844 338.765625 628.601562 338.757812 L 625.460938 338.757812 L 625.460938 334.125 L 628.601562 334.125 C 628.714844 334.117188 628.828125 334.117188 628.941406 334.125 C 629.058594 334.128906 629.175781 334.144531 629.292969 334.167969 C 629.632812 334.234375 629.933594 334.382812 630.191406 334.617188 C 630.429688 334.84375 630.609375 335.113281 630.726562 335.417969 C 630.847656 335.746094 630.90625 336.078125 630.902344 336.425781 C 630.90625 336.769531 630.847656 337.097656 630.726562 337.417969 C 630.613281 337.726562 630.433594 337.992188 630.191406 338.214844 C 629.9375 338.464844 629.640625 338.625 629.292969 338.699219 Z M 630.609375 339.976562 C 631.113281 339.734375 631.523438 339.386719 631.84375 338.925781 C 632.363281 338.183594 632.609375 337.359375 632.578125 336.457031 C 632.59375 335.828125 632.472656 335.230469 632.226562 334.65625 C 631.992188 334.109375 631.644531 333.65625 631.175781 333.292969 C 630.679688 332.902344 630.117188 332.65625 629.492188 332.558594 C 629.324219 332.558594 629.160156 332.515625 629.007812 332.507812 L 623.765625 332.507812 L 623.765625 344.917969 L 625.433594 344.917969 L 625.433594 340.382812 L 628.902344 340.382812 L 631.109375 344.925781 L 633.007812 344.925781 Z M 629.292969 338.699219 C 629.175781 338.730469 629.058594 338.75 628.941406 338.757812 C 628.828125 338.765625 628.714844 338.765625 628.601562 338.757812 L 625.460938 338.757812 L 625.460938 334.125 L 628.601562 334.125 C 628.714844 334.117188 628.828125 334.117188 628.941406 334.125 C 629.058594 334.128906 629.175781 334.144531 629.292969 334.167969 C 629.632812 334.234375 629.933594 334.382812 630.191406 334.617188 C 630.429688 334.84375 630.609375 335.113281 630.726562 335.417969 C 630.847656 335.746094 630.90625 336.078125 630.902344 336.425781 C 630.90625 336.769531 630.847656 337.097656 630.726562 337.417969 C 630.613281 337.726562 630.433594 337.992188 630.191406 338.214844 C 629.9375 338.464844 629.640625 338.625 629.292969 338.699219 Z M 630.609375 339.976562 C 631.113281 339.734375 631.523438 339.386719 631.84375 338.925781 C 632.363281 338.183594 632.609375 337.359375 632.578125 336.457031 C 632.59375 335.828125 632.472656 335.230469 632.226562 334.65625 C 631.992188 334.109375 631.644531 333.65625 631.175781 333.292969 C 630.679688 332.902344 630.117188 332.65625 629.492188 332.558594 C 629.324219 332.558594 629.160156 332.515625 629.007812 332.507812 L 623.765625 332.507812 L 623.765625 344.917969 L 625.433594 344.917969 L 625.433594 340.382812 L 628.902344 340.382812 L 631.109375 344.925781 L 633.007812 344.925781 Z M 629.292969 338.699219 C 629.175781 338.730469 629.058594 338.75 628.941406 338.757812 C 628.828125 338.765625 628.714844 338.765625 628.601562 338.757812 L 625.460938 338.757812 L 625.460938 334.125 L 628.601562 334.125 C 628.714844 334.117188 628.828125 334.117188 628.941406 334.125 C 629.058594 334.128906 629.175781 334.144531 629.292969 334.167969 C 629.632812 334.234375 629.933594 334.382812 630.191406 334.617188 C 630.429688 334.84375 630.609375 335.113281 630.726562 335.417969 C 630.847656 335.746094 630.90625 336.078125 630.902344 336.425781 C 630.90625 336.769531 630.847656 337.097656 630.726562 337.417969 C 630.613281 337.726562 630.433594 337.992188 630.191406 338.214844 C 629.9375 338.464844 629.640625 338.625 629.292969 338.699219 Z M 630.609375 339.976562 C 631.113281 339.734375 631.523438 339.386719 631.84375 338.925781 C 632.363281 338.183594 632.609375 337.359375 632.578125 336.457031 C 632.59375 335.828125 632.472656 335.230469 632.226562 334.65625 C 631.992188 334.109375 631.644531 333.65625 631.175781 333.292969 C 630.679688 332.902344 630.117188 332.65625 629.492188 332.558594 C 629.324219 332.558594 629.160156 332.515625 629.007812 332.507812 L 623.765625 332.507812 L 623.765625 344.917969 L 625.433594 344.917969 L 625.433594 340.382812 L 628.902344 340.382812 L 631.109375 344.925781 L 633.007812 344.925781 Z M 629.292969 338.699219 C 629.175781 338.730469 629.058594 338.75 628.941406 338.757812 C 628.828125 338.765625 628.714844 338.765625 628.601562 338.757812 L 625.460938 338.757812 L 625.460938 334.125 L 628.601562 334.125 C 628.714844 334.117188 628.828125 334.117188 628.941406 334.125 C 629.058594 334.128906 629.175781 334.144531 629.292969 334.167969 C 629.632812 334.234375 629.933594 334.382812 630.191406 334.617188 C 630.429688 334.84375 630.609375 335.113281 630.726562 335.417969 C 630.847656 335.746094 630.90625 336.078125 630.902344 336.425781 C 630.90625 336.769531 630.847656 337.097656 630.726562 337.417969 C 630.613281 337.726562 630.433594 337.992188 630.191406 338.214844 C 629.9375 338.464844 629.640625 338.625 629.292969 338.699219 Z M 630.609375 339.976562 C 631.113281 339.734375 631.523438 339.386719 631.84375 338.925781 C 632.363281 338.183594 632.609375 337.359375 632.578125 336.457031 C 632.59375 335.828125 632.472656 335.230469 632.226562 334.65625 C 631.992188 334.109375 631.644531 333.65625 631.175781 333.292969 C 630.679688 332.902344 630.117188 332.65625 629.492188 332.558594 C 629.324219 332.558594 629.160156 332.515625 629.007812 332.507812 L 623.765625 332.507812 L 623.765625 344.917969 L 625.433594 344.917969 L 625.433594 340.382812 L 628.902344 340.382812 L 631.109375 344.925781 L 633.007812 344.925781 Z M 629.292969 338.699219 C 629.175781 338.730469 629.058594 338.75 628.941406 338.757812 C 628.828125 338.765625 628.714844 338.765625 628.601562 338.757812 L 625.460938 338.757812 L 625.460938 334.125 L 628.601562 334.125 C 628.714844 334.117188 628.828125 334.117188 628.941406 334.125 C 629.058594 334.128906 629.175781 334.144531 629.292969 334.167969 C 629.632812 334.234375 629.933594 334.382812 630.191406 334.617188 C 630.429688 334.84375 630.609375 335.113281 630.726562 335.417969 C 630.847656 335.746094 630.90625 336.078125 630.902344 336.425781 C 630.90625 336.769531 630.847656 337.097656 630.726562 337.417969 C 630.613281 337.726562 630.433594 337.992188 630.191406 338.214844 C 629.9375 338.464844 629.640625 338.625 629.292969 338.699219 Z M 630.609375 339.976562 C 631.113281 339.734375 631.523438 339.386719 631.84375 338.925781 C 632.363281 338.183594 632.609375 337.359375 632.578125 336.457031 C 632.59375 335.828125 632.472656 335.230469 632.226562 334.65625 C 631.992188 334.109375 631.644531 333.65625 631.175781 333.292969 C 630.679688 332.902344 630.117188 332.65625 629.492188 332.558594 C 629.324219 332.558594 629.160156 332.515625 629.007812 332.507812 L 623.765625 332.507812 L 623.765625 344.917969 L 625.433594 344.917969 L 625.433594 340.382812 L 628.902344 340.382812 L 631.109375 344.925781 L 633.007812 344.925781 Z M 629.292969 338.699219 C 629.175781 338.730469 629.058594 338.75 628.941406 338.757812 C 628.828125 338.765625 628.714844 338.765625 628.601562 338.757812 L 625.460938 338.757812 L 625.460938 334.125 L 628.601562 334.125 C 628.714844 334.117188 628.828125 334.117188 628.941406 334.125 C 629.058594 334.128906 629.175781 334.144531 629.292969 334.167969 C 629.632812 334.234375 629.933594 334.382812 630.191406 334.617188 C 630.429688 334.84375 630.609375 335.113281 630.726562 335.417969 C 630.847656 335.746094 630.90625 336.078125 630.902344 336.425781 C 630.90625 336.769531 630.847656 337.097656 630.726562 337.417969 C 630.613281 337.726562 630.433594 337.992188 630.191406 338.214844 C 629.9375 338.464844 629.640625 338.625 629.292969 338.699219 Z M 630.609375 339.976562 C 631.113281 339.734375 631.523438 339.386719 631.84375 338.925781 C 632.363281 338.183594 632.609375 337.359375 632.578125 336.457031 C 632.59375 335.828125 632.472656 335.230469 632.226562 334.65625 C 631.992188 334.109375 631.644531 333.65625 631.175781 333.292969 C 630.679688 332.902344 630.117188 332.65625 629.492188 332.558594 C 629.324219 332.558594 629.160156 332.515625 629.007812 332.507812 L 623.765625 332.507812 L 623.765625 344.917969 L 625.433594 344.917969 L 625.433594 340.382812 L 628.902344 340.382812 L 631.109375 344.925781 L 633.007812 344.925781 Z M 629.292969 338.699219 C 629.175781 338.730469 629.058594 338.75 628.941406 338.757812 C 628.828125 338.765625 628.714844 338.765625 628.601562 338.757812 L 625.460938 338.757812 L 625.460938 334.125 L 628.601562 334.125 C 628.714844 334.117188 628.828125 334.117188 628.941406 334.125 C 629.058594 334.128906 629.175781 334.144531 629.292969 334.167969 C 629.632812 334.234375 629.933594 334.382812 630.191406 334.617188 C 630.429688 334.84375 630.609375 335.113281 630.726562 335.417969 C 630.847656 335.746094 630.90625 336.078125 630.902344 336.425781 C 630.90625 336.769531 630.847656 337.097656 630.726562 337.417969 C 630.613281 337.726562 630.433594 337.992188 630.191406 338.214844 C 629.9375 338.464844 629.640625 338.625 629.292969 338.699219 Z M 630.609375 339.976562 C 631.113281 339.734375 631.523438 339.386719 631.84375 338.925781 C 632.363281 338.183594 632.609375 337.359375 632.578125 336.457031 C 632.59375 335.828125 632.472656 335.230469 632.226562 334.65625 C 631.992188 334.109375 631.644531 333.65625 631.175781 333.292969 C 630.679688 332.902344 630.117188 332.65625 629.492188 332.558594 C 629.324219 332.558594 629.160156 332.515625 629.007812 332.507812 L 623.765625 332.507812 L 623.765625 344.917969 L 625.433594 344.917969 L 625.433594 340.382812 L 628.902344 340.382812 L 631.109375 344.925781 L 633.007812 344.925781 Z M 629.292969 338.699219 C 629.175781 338.730469 629.058594 338.75 628.941406 338.757812 C 628.828125 338.765625 628.714844 338.765625 628.601562 338.757812 L 625.460938 338.757812 L 625.460938 334.125 L 628.601562 334.125 C 628.714844 334.117188 628.828125 334.117188 628.941406 334.125 C 629.058594 334.128906 629.175781 334.144531 629.292969 334.167969 C 629.632812 334.234375 629.933594 334.382812 630.191406 334.617188 C 630.429688 334.84375 630.609375 335.113281 630.726562 335.417969 C 630.847656 335.746094 630.90625 336.078125 630.902344 336.425781 C 630.90625 336.769531 630.847656 337.097656 630.726562 337.417969 C 630.613281 337.726562 630.433594 337.992188 630.191406 338.214844 C 629.9375 338.464844 629.640625 338.625 629.292969 338.699219 Z M 630.609375 339.976562 C 631.113281 339.734375 631.523438 339.386719 631.84375 338.925781 C 632.363281 338.183594 632.609375 337.359375 632.578125 336.457031 C 632.59375 335.828125 632.472656 335.230469 632.226562 334.65625 C 631.992188 334.109375 631.644531 333.65625 631.175781 333.292969 C 630.679688 332.902344 630.117188 332.65625 629.492188 332.558594 C 629.324219 332.558594 629.160156 332.515625 629.007812 332.507812 L 623.765625 332.507812 L 623.765625 344.917969 L 625.433594 344.917969 L 625.433594 340.382812 L 628.902344 340.382812 L 631.109375 344.925781 L 633.007812 344.925781 Z M 629.292969 338.699219 C 629.175781 338.730469 629.058594 338.75 628.941406 338.757812 C 628.828125 338.765625 628.714844 338.765625 628.601562 338.757812 L 625.460938 338.757812 L 625.460938 334.125 L 628.601562 334.125 C 628.714844 334.117188 628.828125 334.117188 628.941406 334.125 C 629.058594 334.128906 629.175781 334.144531 629.292969 334.167969 C 629.632812 334.234375 629.933594 334.382812 630.191406 334.617188 C 630.429688 334.84375 630.609375 335.113281 630.726562 335.417969 C 630.847656 335.746094 630.90625 336.078125 630.902344 336.425781 C 630.90625 336.769531 630.847656 337.097656 630.726562 337.417969 C 630.613281 337.726562 630.433594 337.992188 630.191406 338.214844 C 629.9375 338.464844 629.640625 338.625 629.292969 338.699219 Z M 637.609375 333.039062 C 636.628906 331.199219 635.21875 329.792969 633.375 328.824219 C 632.519531 328.34375 631.621094 327.980469 630.675781 327.734375 C 629.730469 327.484375 628.769531 327.359375 627.789062 327.359375 C 626.8125 327.359375 625.847656 327.484375 624.902344 327.734375 C 623.957031 327.980469 623.058594 328.34375 622.207031 328.824219 C 620.363281 329.796875 618.945312 331.199219 617.949219 333.03125 C 617.453125 333.890625 617.074219 334.800781 616.820312 335.761719 C 616.5625 336.722656 616.433594 337.699219 616.433594 338.695312 C 616.433594 339.6875 616.5625 340.667969 616.820312 341.625 C 617.074219 342.585938 617.453125 343.5 617.949219 344.359375 C 618.945312 346.171875 620.347656 347.578125 622.160156 348.574219 C 623.023438 349.0625 623.929688 349.4375 624.890625 349.691406 C 625.847656 349.945312 626.820312 350.070312 627.8125 350.070312 C 628.800781 350.070312 629.777344 349.945312 630.734375 349.691406 C 631.691406 349.4375 632.601562 349.0625 633.460938 348.574219 C 635.28125 347.585938 636.683594 346.183594 637.667969 344.359375 C 638.648438 342.609375 639.140625 340.730469 639.136719 338.71875 C 639.136719 336.6875 638.625 334.792969 637.609375 333.039062 Z M 636.003906 343.441406 C 635.179688 344.945312 634.011719 346.105469 632.507812 346.925781 C 631.789062 347.34375 631.03125 347.664062 630.234375 347.878906 C 629.433594 348.097656 628.617188 348.203125 627.789062 348.203125 C 626.960938 348.203125 626.144531 348.097656 625.347656 347.878906 C 624.546875 347.664062 623.789062 347.34375 623.074219 346.925781 C 621.558594 346.109375 620.386719 344.945312 619.550781 343.441406 C 619.140625 342.722656 618.828125 341.960938 618.613281 341.160156 C 618.398438 340.359375 618.292969 339.542969 618.292969 338.714844 C 618.292969 337.882812 618.398438 337.070312 618.613281 336.265625 C 618.828125 335.464844 619.140625 334.707031 619.550781 333.984375 C 620.390625 332.464844 621.574219 331.292969 623.101562 330.464844 C 624.550781 329.660156 626.101562 329.25 627.757812 329.234375 C 629.414062 329.253906 630.96875 329.660156 632.417969 330.464844 C 633.949219 331.289062 635.140625 332.457031 636 333.972656 C 636.832031 335.441406 637.25 337.023438 637.253906 338.714844 C 637.257812 340.398438 636.84375 341.976562 636.003906 343.441406 Z M 631.84375 338.925781 C 632.363281 338.183594 632.609375 337.359375 632.578125 336.457031 C 632.59375 335.828125 632.472656 335.230469 632.226562 334.65625 C 631.992188 334.109375 631.644531 333.65625 631.175781 333.292969 C 630.679688 332.902344 630.117188 332.65625 629.492188 332.558594 C 629.324219 332.558594 629.160156 332.515625 629.007812 332.507812 L 623.765625 332.507812 L 623.765625 344.917969 L 625.433594 344.917969 L 625.433594 340.382812 L 628.902344 340.382812 L 631.109375 344.925781 L 633.007812 344.925781 L 630.59375 339.984375 C 631.105469 339.742188 631.523438 339.390625 631.84375 338.925781 Z M 629.285156 338.699219 C 629.167969 338.730469 629.050781 338.75 628.933594 338.757812 C 628.820312 338.765625 628.707031 338.765625 628.59375 338.757812 L 625.457031 338.757812 L 625.457031 334.125 L 628.59375 334.125 C 628.707031 334.117188 628.820312 334.117188 628.933594 334.125 C 629.050781 334.128906 629.167969 334.144531 629.285156 334.167969 C 629.625 334.234375 629.925781 334.382812 630.183594 334.617188 C 630.421875 334.84375 630.601562 335.113281 630.71875 335.417969 C 630.839844 335.746094 630.898438 336.078125 630.894531 336.425781 C 630.898438 336.769531 630.839844 337.097656 630.71875 337.417969 C 630.605469 337.726562 630.425781 337.992188 630.183594 338.214844 C 629.933594 338.460938 629.636719 338.625 629.292969 338.699219 Z M 630.601562 339.976562 C 631.109375 339.738281 631.523438 339.386719 631.84375 338.925781 C 632.363281 338.183594 632.609375 337.359375 632.578125 336.457031 C 632.59375 335.828125 632.472656 335.230469 632.226562 334.65625 C 631.992188 334.109375 631.644531 333.65625 631.175781 333.292969 C 630.679688 332.902344 630.117188 332.65625 629.492188 332.558594 C 629.324219 332.558594 629.160156 332.515625 629.007812 332.507812 L 623.765625 332.507812 L 623.765625 344.917969 L 625.433594 344.917969 L 625.433594 340.382812 L 628.902344 340.382812 L 631.109375 344.925781 L 633.007812 344.925781 Z M 629.285156 338.699219 C 629.167969 338.730469 629.050781 338.75 628.933594 338.757812 C 628.820312 338.765625 628.707031 338.765625 628.59375 338.757812 L 625.457031 338.757812 L 625.457031 334.125 L 628.59375 334.125 C 628.707031 334.117188 628.820312 334.117188 628.933594 334.125 C 629.050781 334.128906 629.167969 334.144531 629.285156 334.167969 C 629.625 334.234375 629.925781 334.382812 630.183594 334.617188 C 630.421875 334.84375 630.601562 335.113281 630.71875 335.417969 C 630.839844 335.746094 630.898438 336.078125 630.894531 336.425781 C 630.898438 336.769531 630.839844 337.097656 630.71875 337.417969 C 630.605469 337.726562 630.425781 337.992188 630.183594 338.214844 C 629.933594 338.460938 629.636719 338.625 629.292969 338.699219 Z M 630.601562 339.976562 C 631.109375 339.738281 631.523438 339.386719 631.84375 338.925781 C 632.363281 338.183594 632.609375 337.359375 632.578125 336.457031 C 632.59375 335.828125 632.472656 335.230469 632.226562 334.65625 C 631.992188 334.109375 631.644531 333.65625 631.175781 333.292969 C 630.679688 332.902344 630.117188 332.65625 629.492188 332.558594 C 629.324219 332.558594 629.160156 332.515625 629.007812 332.507812 L 623.765625 332.507812 L 623.765625 344.917969 L 625.433594 344.917969 L 625.433594 340.382812 L 628.902344 340.382812 L 631.109375 344.925781 L 633.007812 344.925781 Z M 629.285156 338.699219 C 629.167969 338.730469 629.050781 338.75 628.933594 338.757812 C 628.820312 338.765625 628.707031 338.765625 628.59375 338.757812 L 625.457031 338.757812 L 625.457031 334.125 L 628.59375 334.125 C 628.707031 334.117188 628.820312 334.117188 628.933594 334.125 C 629.050781 334.128906 629.167969 334.144531 629.285156 334.167969 C 629.625 334.234375 629.925781 334.382812 630.183594 334.617188 C 630.421875 334.84375 630.601562 335.113281 630.71875 335.417969 C 630.839844 335.746094 630.898438 336.078125 630.894531 336.425781 C 630.898438 336.769531 630.839844 337.097656 630.71875 337.417969 C 630.605469 337.726562 630.425781 337.992188 630.183594 338.214844 C 629.933594 338.460938 629.636719 338.625 629.292969 338.699219 Z M 630.601562 339.976562 C 631.109375 339.738281 631.523438 339.386719 631.84375 338.925781 C 632.363281 338.183594 632.609375 337.359375 632.578125 336.457031 C 632.59375 335.828125 632.472656 335.230469 632.226562 334.65625 C 631.992188 334.109375 631.644531 333.65625 631.175781 333.292969 C 630.679688 332.902344 630.117188 332.65625 629.492188 332.558594 C 629.324219 332.558594 629.160156 332.515625 629.007812 332.507812 L 623.765625 332.507812 L 623.765625 344.917969 L 625.433594 344.917969 L 625.433594 340.382812 L 628.902344 340.382812 L 631.109375 344.925781 L 633.007812 344.925781 Z M 629.285156 338.699219 C 629.167969 338.730469 629.050781 338.75 628.933594 338.757812 C 628.820312 338.765625 628.707031 338.765625 628.59375 338.757812 L 625.457031 338.757812 L 625.457031 334.125 L 628.59375 334.125 C 628.707031 334.117188 628.820312 334.117188 628.933594 334.125 C 629.050781 334.128906 629.167969 334.144531 629.285156 334.167969 C 629.625 334.234375 629.925781 334.382812 630.183594 334.617188 C 630.421875 334.84375 630.601562 335.113281 630.71875 335.417969 C 630.839844 335.746094 630.898438 336.078125 630.894531 336.425781 C 630.898438 336.769531 630.839844 337.097656 630.71875 337.417969 C 630.605469 337.726562 630.425781 337.992188 630.183594 338.214844 C 629.933594 338.460938 629.636719 338.625 629.292969 338.699219 Z M 630.601562 339.976562 C 631.109375 339.738281 631.523438 339.386719 631.84375 338.925781 C 632.363281 338.183594 632.609375 337.359375 632.578125 336.457031 C 632.59375 335.828125 632.472656 335.230469 632.226562 334.65625 C 631.992188 334.109375 631.644531 333.65625 631.175781 333.292969 C 630.679688 332.902344 630.117188 332.65625 629.492188 332.558594 C 629.324219 332.558594 629.160156 332.515625 629.007812 332.507812 L 623.765625 332.507812 L 623.765625 344.917969 L 625.433594 344.917969 L 625.433594 340.382812 L 628.902344 340.382812 L 631.109375 344.925781 L 633.007812 344.925781 Z M 629.285156 338.699219 C 629.167969 338.730469 629.050781 338.75 628.933594 338.757812 C 628.820312 338.765625 628.707031 338.765625 628.59375 338.757812 L 625.457031 338.757812 L 625.457031 334.125 L 628.59375 334.125 C 628.707031 334.117188 628.820312 334.117188 628.933594 334.125 C 629.050781 334.128906 629.167969 334.144531 629.285156 334.167969 C 629.625 334.234375 629.925781 334.382812 630.183594 334.617188 C 630.421875 334.84375 630.601562 335.113281 630.71875 335.417969 C 630.839844 335.746094 630.898438 336.078125 630.894531 336.425781 C 630.898438 336.769531 630.839844 337.097656 630.71875 337.417969 C 630.605469 337.726562 630.425781 337.992188 630.183594 338.214844 C 629.933594 338.460938 629.636719 338.625 629.292969 338.699219 Z M 630.601562 339.976562 C 631.109375 339.738281 631.523438 339.386719 631.84375 338.925781 C 632.363281 338.183594 632.609375 337.359375 632.578125 336.457031 C 632.59375 335.828125 632.472656 335.230469 632.226562 334.65625 C 631.992188 334.109375 631.644531 333.65625 631.175781 333.292969 C 630.679688 332.902344 630.117188 332.65625 629.492188 332.558594 C 629.324219 332.558594 629.160156 332.515625 629.007812 332.507812 L 623.765625 332.507812 L 623.765625 344.917969 L 625.433594 344.917969 L 625.433594 340.382812 L 628.902344 340.382812 L 631.109375 344.925781 L 633.007812 344.925781 Z M 629.285156 338.699219 C 629.167969 338.730469 629.050781 338.75 628.933594 338.757812 C 628.820312 338.765625 628.707031 338.765625 628.59375 338.757812 L 625.457031 338.757812 L 625.457031 334.125 L 628.59375 334.125 C 628.707031 334.117188 628.820312 334.117188 628.933594 334.125 C 629.050781 334.128906 629.167969 334.144531 629.285156 334.167969 C 629.625 334.234375 629.925781 334.382812 630.183594 334.617188 C 630.421875 334.84375 630.601562 335.113281 630.71875 335.417969 C 630.839844 335.746094 630.898438 336.078125 630.894531 336.425781 C 630.898438 336.769531 630.839844 337.097656 630.71875 337.417969 C 630.605469 337.726562 630.425781 337.992188 630.183594 338.214844 C 629.933594 338.460938 629.636719 338.625 629.292969 338.699219 Z M 630.601562 339.976562 C 631.109375 339.738281 631.523438 339.386719 631.84375 338.925781 C 632.363281 338.183594 632.609375 337.359375 632.578125 336.457031 C 632.59375 335.828125 632.472656 335.230469 632.226562 334.65625 C 631.992188 334.109375 631.644531 333.65625 631.175781 333.292969 C 630.679688 332.902344 630.117188 332.65625 629.492188 332.558594 C 629.324219 332.558594 629.160156 332.515625 629.007812 332.507812 L 623.765625 332.507812 L 623.765625 344.917969 L 625.433594 344.917969 L 625.433594 340.382812 L 628.902344 340.382812 L 631.109375 344.925781 L 633.007812 344.925781 Z M 629.285156 338.699219 C 629.167969 338.730469 629.050781 338.75 628.933594 338.757812 C 628.820312 338.765625 628.707031 338.765625 628.59375 338.757812 L 625.457031 338.757812 L 625.457031 334.125 L 628.59375 334.125 C 628.707031 334.117188 628.820312 334.117188 628.933594 334.125 C 629.050781 334.128906 629.167969 334.144531 629.285156 334.167969 C 629.625 334.234375 629.925781 334.382812 630.183594 334.617188 C 630.421875 334.84375 630.601562 335.113281 630.71875 335.417969 C 630.839844 335.746094 630.898438 336.078125 630.894531 336.425781 C 630.898438 336.769531 630.839844 337.097656 630.71875 337.417969 C 630.605469 337.726562 630.425781 337.992188 630.183594 338.214844 C 629.933594 338.460938 629.636719 338.625 629.292969 338.699219 Z M 630.601562 339.976562 C 631.109375 339.738281 631.523438 339.386719 631.84375 338.925781 C 632.363281 338.183594 632.609375 337.359375 632.578125 336.457031 C 632.59375 335.828125 632.472656 335.230469 632.226562 334.65625 C 631.992188 334.109375 631.644531 333.65625 631.175781 333.292969 C 630.679688 332.902344 630.117188 332.65625 629.492188 332.558594 C 629.324219 332.558594 629.160156 332.515625 629.007812 332.507812 L 623.765625 332.507812 L 623.765625 344.917969 L 625.433594 344.917969 L 625.433594 340.382812 L 628.902344 340.382812 L 631.109375 344.925781 L 633.007812 344.925781 Z M 629.285156 338.699219 C 629.167969 338.730469 629.050781 338.75 628.933594 338.757812 C 628.820312 338.765625 628.707031 338.765625 628.59375 338.757812 L 625.457031 338.757812 L 625.457031 334.125 L 628.59375 334.125 C 628.707031 334.117188 628.820312 334.117188 628.933594 334.125 C 629.050781 334.128906 629.167969 334.144531 629.285156 334.167969 C 629.625 334.234375 629.925781 334.382812 630.183594 334.617188 C 630.421875 334.84375 630.601562 335.113281 630.71875 335.417969 C 630.839844 335.746094 630.898438 336.078125 630.894531 336.425781 C 630.898438 336.769531 630.839844 337.097656 630.71875 337.417969 C 630.605469 337.726562 630.425781 337.992188 630.183594 338.214844 C 629.933594 338.460938 629.636719 338.625 629.292969 338.699219 Z M 630.601562 339.976562 C 631.109375 339.738281 631.523438 339.386719 631.84375 338.925781 C 632.363281 338.183594 632.609375 337.359375 632.578125 336.457031 C 632.59375 335.828125 632.472656 335.230469 632.226562 334.65625 C 631.992188 334.109375 631.644531 333.65625 631.175781 333.292969 C 630.679688 332.902344 630.117188 332.65625 629.492188 332.558594 C 629.324219 332.558594 629.160156 332.515625 629.007812 332.507812 L 623.765625 332.507812 L 623.765625 344.917969 L 625.433594 344.917969 L 625.433594 340.382812 L 628.902344 340.382812 L 631.109375 344.925781 L 633.007812 344.925781 Z M 629.285156 338.699219 C 629.167969 338.730469 629.050781 338.75 628.933594 338.757812 C 628.820312 338.765625 628.707031 338.765625 628.59375 338.757812 L 625.457031 338.757812 L 625.457031 334.125 L 628.59375 334.125 C 628.707031 334.117188 628.820312 334.117188 628.933594 334.125 C 629.050781 334.128906 629.167969 334.144531 629.285156 334.167969 C 629.625 334.234375 629.925781 334.382812 630.183594 334.617188 C 630.421875 334.84375 630.601562 335.113281 630.71875 335.417969 C 630.839844 335.746094 630.898438 336.078125 630.894531 336.425781 C 630.898438 336.769531 630.839844 337.097656 630.71875 337.417969 C 630.605469 337.726562 630.425781 337.992188 630.183594 338.214844 C 629.933594 338.460938 629.636719 338.625 629.292969 338.699219 Z M 629.285156 338.699219 " fill-opacity="1" fill-rule="nonzero"/></g><path fill="#2ecbaa" d="M 630.609375 339.976562 C 631.113281 339.734375 631.523438 339.386719 631.84375 338.925781 C 632.363281 338.183594 632.609375 337.359375 632.578125 336.457031 C 632.59375 335.828125 632.472656 335.230469 632.226562 334.65625 C 631.992188 334.109375 631.644531 333.65625 631.175781 333.292969 C 630.679688 332.902344 630.117188 332.65625 629.492188 332.558594 C 629.324219 332.558594 629.160156 332.515625 629.007812 332.507812 L 623.765625 332.507812 L 623.765625 344.917969 L 625.433594 344.917969 L 625.433594 340.382812 L 628.902344 340.382812 L 631.109375 344.925781 L 633.007812 344.925781 Z M 629.292969 338.699219 C 629.175781 338.730469 629.058594 338.75 628.941406 338.757812 C 628.828125 338.765625 628.714844 338.765625 628.601562 338.757812 L 625.460938 338.757812 L 625.460938 334.125 L 628.601562 334.125 C 628.714844 334.117188 628.828125 334.117188 628.941406 334.125 C 629.058594 334.128906 629.175781 334.144531 629.292969 334.167969 C 629.632812 334.234375 629.933594 334.382812 630.191406 334.617188 C 630.429688 334.84375 630.609375 335.113281 630.726562 335.417969 C 630.847656 335.746094 630.90625 336.078125 630.902344 336.425781 C 630.90625 336.769531 630.847656 337.097656 630.726562 337.417969 C 630.613281 337.726562 630.433594 337.992188 630.191406 338.214844 C 629.9375 338.464844 629.640625 338.625 629.292969 338.699219 Z M 629.292969 338.699219 " fill-opacity="1" fill-rule="nonzero"/></svg>