<svg xmlns="http://www.w3.org/2000/svg" xmlns:xlink="http://www.w3.org/1999/xlink" width="1080" zoomAndPan="magnify" viewBox="0 0 810 809.999993" height="1080" preserveAspectRatio="xMidYMid meet" version="1.0"><defs><clipPath id="c5e1209d40"><path d="M 234.109375 173.859375 L 574 173.859375 L 574 635 L 234.109375 635 Z M 234.109375 173.859375 " clip-rule="nonzero"/></clipPath></defs><g clip-path="url(#c5e1209d40)"><path fill="#2ecbaa" d="M 276.394531 433.722656 C 275.210938 416.078125 275.210938 398.433594 275.210938 380.8125 C 276.394531 309.675781 289.324219 174.460938 383.398438 173.859375 C 435.707031 173.277344 458.644531 214.441406 458.644531 259.691406 C 458.644531 324.371094 411.027344 403.148438 349.875 461.933594 C 351.625 480.777344 354.730469 499.398438 359.195312 517.789062 L 478.550781 329.0625 L 559.089844 329.0625 L 482.660156 449.601562 C 553.796875 500.148438 573.785156 581.867188 573.785156 623.03125 L 503.210938 623.03125 C 503.210938 596.566406 490.257812 543.074219 445.089844 509.570312 L 377.503906 615.996094 C 359.277344 641.859375 330.488281 640.695312 315.230469 612.464844 C 302.878906 589.632812 292.398438 554.34375 285.257812 512.519531 C 277.46875 517.46875 269.4375 521.980469 261.15625 526.050781 L 234.648438 463.695312 C 249.929688 453.710938 263.460938 443.707031 276.394531 433.722656 Z M 388.691406 260.875 C 388.691406 245.597656 385.746094 240.886719 380.390625 240.886719 C 357.554688 240.886719 348.046875 324.371094 346.285156 366.117188 C 376.339844 327.902344 388.691406 292.03125 388.691406 260.875 Z M 388.691406 260.875 " fill-opacity="1" fill-rule="nonzero"/></g></svg>