<svg xmlns="http://www.w3.org/2000/svg" xmlns:xlink="http://www.w3.org/1999/xlink" width="1080" zoomAndPan="magnify" viewBox="0 0 810 809.999993" height="1080" preserveAspectRatio="xMidYMid meet" version="1.0"><defs><clipPath id="5bacaded93"><path d="M 177.644531 302.566406 L 295 302.566406 L 295 461 L 177.644531 461 Z M 177.644531 302.566406 " clip-rule="nonzero"/></clipPath><clipPath id="8fcdc5d957"><path d="M 488 354 L 594 354 L 594 507.316406 L 488 507.316406 Z M 488 354 " clip-rule="nonzero"/></clipPath><clipPath id="4766b8a2a0"><path d="M 610 329 L 632.144531 329 L 632.144531 352 L 610 352 Z M 610 329 " clip-rule="nonzero"/></clipPath></defs><g clip-path="url(#5bacaded93)"><path fill="#034041" d="M 192.171875 391.867188 C 191.765625 385.804688 191.765625 379.738281 191.765625 373.683594 C 192.171875 349.238281 196.613281 302.773438 228.941406 302.566406 C 246.917969 302.367188 254.800781 316.511719 254.800781 332.0625 C 254.800781 354.289062 238.4375 381.359375 217.421875 401.5625 C 218.023438 408.035156 219.089844 414.4375 220.625 420.757812 L 261.640625 355.902344 L 289.316406 355.902344 L 263.054688 397.324219 C 287.5 414.691406 294.367188 442.777344 294.367188 456.921875 L 270.117188 456.921875 C 270.117188 447.828125 265.664062 429.445312 250.140625 417.929688 L 226.917969 454.503906 C 220.652344 463.390625 210.757812 462.992188 205.515625 453.292969 C 201.273438 445.445312 197.671875 433.316406 195.214844 418.945312 C 192.539062 420.644531 189.78125 422.195312 186.933594 423.59375 L 177.824219 402.167969 C 183.074219 398.734375 187.726562 395.296875 192.171875 391.867188 Z M 230.761719 332.46875 C 230.761719 327.21875 229.75 325.597656 227.90625 325.597656 C 220.0625 325.597656 216.792969 354.289062 216.1875 368.632812 C 226.515625 355.5 230.761719 343.175781 230.761719 332.46875 Z M 230.761719 332.46875 " fill-opacity="1" fill-rule="nonzero"/></g><path fill="#ffffff" d="M 346.121094 437.121094 C 353.597656 437.121094 355.394531 421.96875 355.394531 415.507812 C 350.742188 402.375 347.511719 387.421875 347.511719 373.484375 C 347.511719 365.195312 349.332031 350.042969 360.445312 350.042969 C 377.613281 350.042969 381.453125 384.996094 381.453125 397.125 C 381.453125 401.175781 381.25 405.21875 380.84375 409.25 C 381.859375 416.519531 390.117188 436.925781 400.816406 437.128906 C 407.082031 437.128906 410.71875 430.257812 413.144531 425.8125 C 400.617188 415.714844 392.335938 400.363281 392.335938 383.992188 C 392.335938 366.820312 401.609375 352.277344 420.015625 352.277344 C 439.410156 352.277344 448.097656 368.839844 448.097656 386.21875 C 447.988281 396.191406 446.25 405.878906 442.890625 415.269531 L 448.546875 415.675781 L 448.546875 438.910156 C 443.449219 438.882812 438.453125 438.144531 433.566406 436.691406 C 425.71875 449.824219 414.578125 460.324219 398.414062 460.324219 C 386.902344 460.324219 377.40625 453.054688 370.539062 444.367188 C 365.082031 453.457031 356.984375 460.324219 345.886719 460.324219 C 307.300781 460.324219 296.386719 383.554688 296.386719 355.871094 L 320.640625 355.871094 C 320.660156 403.785156 335.007812 437.121094 346.121094 437.121094 Z M 423.871094 385.605469 C 423.871094 380.960938 423.265625 375.503906 420.234375 375.503906 C 417.203125 375.503906 416.597656 381.160156 416.597656 385.402344 C 416.597656 393.078125 418.414062 398.957031 421.648438 403.585938 C 423.058594 397.675781 423.816406 391.679688 423.921875 385.605469 Z M 423.871094 385.605469 " fill-opacity="1" fill-rule="nonzero"/><path fill="#ffffff" d="M 468.75 313.265625 C 469.625 313.265625 470.492188 313.347656 471.351562 313.519531 C 472.210938 313.6875 473.046875 313.941406 473.855469 314.277344 C 474.664062 314.613281 475.433594 315.023438 476.164062 315.507812 C 476.890625 315.996094 477.566406 316.546875 478.183594 317.167969 C 478.804688 317.789062 479.355469 318.460938 479.84375 319.191406 C 480.332031 319.917969 480.742188 320.6875 481.074219 321.496094 C 481.410156 322.308594 481.664062 323.140625 481.832031 324 C 482.003906 324.859375 482.089844 325.726562 482.085938 326.605469 C 482.109375 327.492188 482.039062 328.375 481.882812 329.25 C 481.730469 330.125 481.488281 330.976562 481.164062 331.804688 C 480.835938 332.628906 480.433594 333.417969 479.949219 334.164062 C 479.464844 334.910156 478.914062 335.601562 478.292969 336.234375 C 477.671875 336.871094 476.992188 337.4375 476.257812 337.941406 C 475.523438 338.441406 474.746094 338.863281 473.925781 339.207031 C 473.109375 339.550781 472.261719 339.8125 471.390625 339.988281 C 470.519531 340.164062 469.640625 340.253906 468.75 340.253906 C 467.863281 340.253906 466.984375 340.164062 466.113281 339.988281 C 465.238281 339.8125 464.394531 339.550781 463.574219 339.207031 C 462.757812 338.863281 461.980469 338.441406 461.246094 337.941406 C 460.511719 337.4375 459.832031 336.871094 459.210938 336.234375 C 458.589844 335.601562 458.039062 334.910156 457.554688 334.164062 C 457.070312 333.417969 456.667969 332.628906 456.339844 331.804688 C 456.015625 330.976562 455.773438 330.125 455.617188 329.25 C 455.464844 328.375 455.394531 327.492188 455.417969 326.605469 C 455.414062 325.730469 455.5 324.859375 455.667969 324 C 455.839844 323.144531 456.09375 322.308594 456.425781 321.5 C 456.761719 320.691406 457.171875 319.921875 457.660156 319.191406 C 458.144531 318.464844 458.695312 317.789062 459.316406 317.171875 C 459.933594 316.550781 460.609375 315.996094 461.335938 315.511719 C 462.066406 315.023438 462.835938 314.613281 463.644531 314.277344 C 464.453125 313.945312 465.285156 313.691406 466.144531 313.519531 C 467.003906 313.351562 467.871094 313.265625 468.75 313.265625 Z M 456.621094 355.894531 L 480.875 355.894531 L 480.875 456.921875 L 456.621094 456.921875 Z M 456.621094 355.894531 " fill-opacity="1" fill-rule="nonzero"/><g clip-path="url(#8fcdc5d957)"><path fill="#ffffff" d="M 539.867188 354.488281 C 552.59375 354.488281 562.285156 358.125 569.15625 364.390625 L 569.15625 355.902344 L 593.410156 355.902344 L 593.410156 507.433594 L 569.15625 507.433594 L 569.15625 448.640625 C 562.285156 454.902344 552.59375 458.742188 539.867188 458.742188 C 509.964844 458.742188 488.949219 437.726562 488.949219 406.410156 C 488.949219 375.324219 509.964844 354.488281 539.867188 354.488281 Z M 541.078125 436.519531 C 558.050781 436.519531 569.15625 425.414062 569.15625 406.625 C 569.15625 387.835938 558.027344 376.75 541.078125 376.75 C 524.308594 376.75 513.195312 387.863281 513.195312 406.652344 C 513.195312 425.441406 524.308594 436.511719 541.078125 436.511719 Z M 541.078125 436.519531 " fill-opacity="1" fill-rule="nonzero"/></g><g clip-path="url(#4766b8a2a0)"><path fill="#ffffff" d="M 623.882812 341.917969 C 624.371094 341.683594 624.769531 341.34375 625.082031 340.898438 C 625.582031 340.179688 625.820312 339.378906 625.792969 338.503906 C 625.804688 337.894531 625.691406 337.3125 625.453125 336.753906 C 625.226562 336.226562 624.886719 335.789062 624.429688 335.433594 C 623.949219 335.054688 623.40625 334.816406 622.796875 334.722656 C 622.632812 334.722656 622.476562 334.679688 622.328125 334.671875 L 617.242188 334.671875 L 617.242188 346.714844 L 618.859375 346.714844 L 618.859375 342.3125 L 622.226562 342.3125 L 624.367188 346.71875 L 626.207031 346.71875 Z M 622.605469 340.679688 C 622.492188 340.707031 622.378906 340.726562 622.261719 340.734375 C 622.152344 340.742188 622.042969 340.742188 621.933594 340.734375 L 618.890625 340.734375 L 618.890625 336.242188 L 621.933594 336.242188 C 622.042969 336.234375 622.152344 336.234375 622.261719 336.242188 C 622.378906 336.246094 622.492188 336.257812 622.605469 336.285156 C 622.9375 336.347656 623.226562 336.492188 623.476562 336.71875 C 623.707031 336.941406 623.878906 337.199219 623.996094 337.496094 C 624.113281 337.8125 624.171875 338.136719 624.167969 338.472656 C 624.171875 338.804688 624.113281 339.125 623.996094 339.4375 C 623.886719 339.734375 623.710938 339.992188 623.476562 340.207031 C 623.230469 340.449219 622.941406 340.605469 622.605469 340.679688 Z M 623.882812 341.917969 C 624.371094 341.683594 624.769531 341.34375 625.082031 340.898438 C 625.582031 340.179688 625.820312 339.378906 625.792969 338.503906 C 625.804688 337.894531 625.691406 337.3125 625.453125 336.753906 C 625.226562 336.226562 624.886719 335.789062 624.429688 335.433594 C 623.949219 335.054688 623.40625 334.816406 622.796875 334.722656 C 622.632812 334.722656 622.476562 334.679688 622.328125 334.671875 L 617.242188 334.671875 L 617.242188 346.714844 L 618.859375 346.714844 L 618.859375 342.3125 L 622.226562 342.3125 L 624.367188 346.71875 L 626.207031 346.71875 Z M 622.605469 340.679688 C 622.492188 340.707031 622.378906 340.726562 622.261719 340.734375 C 622.152344 340.742188 622.042969 340.742188 621.933594 340.734375 L 618.890625 340.734375 L 618.890625 336.242188 L 621.933594 336.242188 C 622.042969 336.234375 622.152344 336.234375 622.261719 336.242188 C 622.378906 336.246094 622.492188 336.257812 622.605469 336.285156 C 622.9375 336.347656 623.226562 336.492188 623.476562 336.71875 C 623.707031 336.941406 623.878906 337.199219 623.996094 337.496094 C 624.113281 337.8125 624.171875 338.136719 624.167969 338.472656 C 624.171875 338.804688 624.113281 339.125 623.996094 339.4375 C 623.886719 339.734375 623.710938 339.992188 623.476562 340.207031 C 623.230469 340.449219 622.941406 340.605469 622.605469 340.679688 Z M 623.882812 341.917969 C 624.371094 341.683594 624.769531 341.34375 625.082031 340.898438 C 625.582031 340.179688 625.820312 339.378906 625.792969 338.503906 C 625.804688 337.894531 625.691406 337.3125 625.453125 336.753906 C 625.226562 336.226562 624.886719 335.789062 624.429688 335.433594 C 623.949219 335.054688 623.40625 334.816406 622.796875 334.722656 C 622.632812 334.722656 622.476562 334.679688 622.328125 334.671875 L 617.242188 334.671875 L 617.242188 346.714844 L 618.859375 346.714844 L 618.859375 342.3125 L 622.226562 342.3125 L 624.367188 346.71875 L 626.207031 346.71875 Z M 622.605469 340.679688 C 622.492188 340.707031 622.378906 340.726562 622.261719 340.734375 C 622.152344 340.742188 622.042969 340.742188 621.933594 340.734375 L 618.890625 340.734375 L 618.890625 336.242188 L 621.933594 336.242188 C 622.042969 336.234375 622.152344 336.234375 622.261719 336.242188 C 622.378906 336.246094 622.492188 336.257812 622.605469 336.285156 C 622.9375 336.347656 623.226562 336.492188 623.476562 336.71875 C 623.707031 336.941406 623.878906 337.199219 623.996094 337.496094 C 624.113281 337.8125 624.171875 338.136719 624.167969 338.472656 C 624.171875 338.804688 624.113281 339.125 623.996094 339.4375 C 623.886719 339.734375 623.710938 339.992188 623.476562 340.207031 C 623.230469 340.449219 622.941406 340.605469 622.605469 340.679688 Z M 623.882812 341.917969 C 624.371094 341.683594 624.769531 341.34375 625.082031 340.898438 C 625.582031 340.179688 625.820312 339.378906 625.792969 338.503906 C 625.804688 337.894531 625.691406 337.3125 625.453125 336.753906 C 625.226562 336.226562 624.886719 335.789062 624.429688 335.433594 C 623.949219 335.054688 623.40625 334.816406 622.796875 334.722656 C 622.632812 334.722656 622.476562 334.679688 622.328125 334.671875 L 617.242188 334.671875 L 617.242188 346.714844 L 618.859375 346.714844 L 618.859375 342.3125 L 622.226562 342.3125 L 624.367188 346.71875 L 626.207031 346.71875 Z M 622.605469 340.679688 C 622.492188 340.707031 622.378906 340.726562 622.261719 340.734375 C 622.152344 340.742188 622.042969 340.742188 621.933594 340.734375 L 618.890625 340.734375 L 618.890625 336.242188 L 621.933594 336.242188 C 622.042969 336.234375 622.152344 336.234375 622.261719 336.242188 C 622.378906 336.246094 622.492188 336.257812 622.605469 336.285156 C 622.9375 336.347656 623.226562 336.492188 623.476562 336.71875 C 623.707031 336.941406 623.878906 337.199219 623.996094 337.496094 C 624.113281 337.8125 624.171875 338.136719 624.167969 338.472656 C 624.171875 338.804688 624.113281 339.125 623.996094 339.4375 C 623.886719 339.734375 623.710938 339.992188 623.476562 340.207031 C 623.230469 340.449219 622.941406 340.605469 622.605469 340.679688 Z M 623.882812 341.917969 C 624.371094 341.683594 624.769531 341.34375 625.082031 340.898438 C 625.582031 340.179688 625.820312 339.378906 625.792969 338.503906 C 625.804688 337.894531 625.691406 337.3125 625.453125 336.753906 C 625.226562 336.226562 624.886719 335.789062 624.429688 335.433594 C 623.949219 335.054688 623.40625 334.816406 622.796875 334.722656 C 622.632812 334.722656 622.476562 334.679688 622.328125 334.671875 L 617.242188 334.671875 L 617.242188 346.714844 L 618.859375 346.714844 L 618.859375 342.3125 L 622.226562 342.3125 L 624.367188 346.71875 L 626.207031 346.71875 Z M 622.605469 340.679688 C 622.492188 340.707031 622.378906 340.726562 622.261719 340.734375 C 622.152344 340.742188 622.042969 340.742188 621.933594 340.734375 L 618.890625 340.734375 L 618.890625 336.242188 L 621.933594 336.242188 C 622.042969 336.234375 622.152344 336.234375 622.261719 336.242188 C 622.378906 336.246094 622.492188 336.257812 622.605469 336.285156 C 622.9375 336.347656 623.226562 336.492188 623.476562 336.71875 C 623.707031 336.941406 623.878906 337.199219 623.996094 337.496094 C 624.113281 337.8125 624.171875 338.136719 624.167969 338.472656 C 624.171875 338.804688 624.113281 339.125 623.996094 339.4375 C 623.886719 339.734375 623.710938 339.992188 623.476562 340.207031 C 623.230469 340.449219 622.941406 340.605469 622.605469 340.679688 Z M 623.882812 341.917969 C 624.371094 341.683594 624.769531 341.34375 625.082031 340.898438 C 625.582031 340.179688 625.820312 339.378906 625.792969 338.503906 C 625.804688 337.894531 625.691406 337.3125 625.453125 336.753906 C 625.226562 336.226562 624.886719 335.789062 624.429688 335.433594 C 623.949219 335.054688 623.40625 334.816406 622.796875 334.722656 C 622.632812 334.722656 622.476562 334.679688 622.328125 334.671875 L 617.242188 334.671875 L 617.242188 346.714844 L 618.859375 346.714844 L 618.859375 342.3125 L 622.226562 342.3125 L 624.367188 346.71875 L 626.207031 346.71875 Z M 622.605469 340.679688 C 622.492188 340.707031 622.378906 340.726562 622.261719 340.734375 C 622.152344 340.742188 622.042969 340.742188 621.933594 340.734375 L 618.890625 340.734375 L 618.890625 336.242188 L 621.933594 336.242188 C 622.042969 336.234375 622.152344 336.234375 622.261719 336.242188 C 622.378906 336.246094 622.492188 336.257812 622.605469 336.285156 C 622.9375 336.347656 623.226562 336.492188 623.476562 336.71875 C 623.707031 336.941406 623.878906 337.199219 623.996094 337.496094 C 624.113281 337.8125 624.171875 338.136719 624.167969 338.472656 C 624.171875 338.804688 624.113281 339.125 623.996094 339.4375 C 623.886719 339.734375 623.710938 339.992188 623.476562 340.207031 C 623.230469 340.449219 622.941406 340.605469 622.605469 340.679688 Z M 623.882812 341.917969 C 624.371094 341.683594 624.769531 341.34375 625.082031 340.898438 C 625.582031 340.179688 625.820312 339.378906 625.792969 338.503906 C 625.804688 337.894531 625.691406 337.3125 625.453125 336.753906 C 625.226562 336.226562 624.886719 335.789062 624.429688 335.433594 C 623.949219 335.054688 623.40625 334.816406 622.796875 334.722656 C 622.632812 334.722656 622.476562 334.679688 622.328125 334.671875 L 617.242188 334.671875 L 617.242188 346.714844 L 618.859375 346.714844 L 618.859375 342.3125 L 622.226562 342.3125 L 624.367188 346.71875 L 626.207031 346.71875 Z M 622.605469 340.679688 C 622.492188 340.707031 622.378906 340.726562 622.261719 340.734375 C 622.152344 340.742188 622.042969 340.742188 621.933594 340.734375 L 618.890625 340.734375 L 618.890625 336.242188 L 621.933594 336.242188 C 622.042969 336.234375 622.152344 336.234375 622.261719 336.242188 C 622.378906 336.246094 622.492188 336.257812 622.605469 336.285156 C 622.9375 336.347656 623.226562 336.492188 623.476562 336.71875 C 623.707031 336.941406 623.878906 337.199219 623.996094 337.496094 C 624.113281 337.8125 624.171875 338.136719 624.167969 338.472656 C 624.171875 338.804688 624.113281 339.125 623.996094 339.4375 C 623.886719 339.734375 623.710938 339.992188 623.476562 340.207031 C 623.230469 340.449219 622.941406 340.605469 622.605469 340.679688 Z M 623.882812 341.917969 C 624.371094 341.683594 624.769531 341.34375 625.082031 340.898438 C 625.582031 340.179688 625.820312 339.378906 625.792969 338.503906 C 625.804688 337.894531 625.691406 337.3125 625.453125 336.753906 C 625.226562 336.226562 624.886719 335.789062 624.429688 335.433594 C 623.949219 335.054688 623.40625 334.816406 622.796875 334.722656 C 622.632812 334.722656 622.476562 334.679688 622.328125 334.671875 L 617.242188 334.671875 L 617.242188 346.714844 L 618.859375 346.714844 L 618.859375 342.3125 L 622.226562 342.3125 L 624.367188 346.71875 L 626.207031 346.71875 Z M 622.605469 340.679688 C 622.492188 340.707031 622.378906 340.726562 622.261719 340.734375 C 622.152344 340.742188 622.042969 340.742188 621.933594 340.734375 L 618.890625 340.734375 L 618.890625 336.242188 L 621.933594 336.242188 C 622.042969 336.234375 622.152344 336.234375 622.261719 336.242188 C 622.378906 336.246094 622.492188 336.257812 622.605469 336.285156 C 622.9375 336.347656 623.226562 336.492188 623.476562 336.71875 C 623.707031 336.941406 623.878906 337.199219 623.996094 337.496094 C 624.113281 337.8125 624.171875 338.136719 624.167969 338.472656 C 624.171875 338.804688 624.113281 339.125 623.996094 339.4375 C 623.886719 339.734375 623.710938 339.992188 623.476562 340.207031 C 623.230469 340.449219 622.941406 340.605469 622.605469 340.679688 Z M 623.882812 341.917969 C 624.371094 341.683594 624.769531 341.34375 625.082031 340.898438 C 625.582031 340.179688 625.820312 339.378906 625.792969 338.503906 C 625.804688 337.894531 625.691406 337.3125 625.453125 336.753906 C 625.226562 336.226562 624.886719 335.789062 624.429688 335.433594 C 623.949219 335.054688 623.40625 334.816406 622.796875 334.722656 C 622.632812 334.722656 622.476562 334.679688 622.328125 334.671875 L 617.242188 334.671875 L 617.242188 346.714844 L 618.859375 346.714844 L 618.859375 342.3125 L 622.226562 342.3125 L 624.367188 346.71875 L 626.207031 346.71875 Z M 622.605469 340.679688 C 622.492188 340.707031 622.378906 340.726562 622.261719 340.734375 C 622.152344 340.742188 622.042969 340.742188 621.933594 340.734375 L 618.890625 340.734375 L 618.890625 336.242188 L 621.933594 336.242188 C 622.042969 336.234375 622.152344 336.234375 622.261719 336.242188 C 622.378906 336.246094 622.492188 336.257812 622.605469 336.285156 C 622.9375 336.347656 623.226562 336.492188 623.476562 336.71875 C 623.707031 336.941406 623.878906 337.199219 623.996094 337.496094 C 624.113281 337.8125 624.171875 338.136719 624.167969 338.472656 C 624.171875 338.804688 624.113281 339.125 623.996094 339.4375 C 623.886719 339.734375 623.710938 339.992188 623.476562 340.207031 C 623.230469 340.449219 622.941406 340.605469 622.605469 340.679688 Z M 630.671875 335.1875 C 629.722656 333.402344 628.351562 332.039062 626.5625 331.097656 C 625.738281 330.632812 624.863281 330.28125 623.945312 330.039062 C 623.027344 329.800781 622.09375 329.679688 621.148438 329.679688 C 620.199219 329.679688 619.265625 329.800781 618.347656 330.039062 C 617.429688 330.28125 616.554688 330.632812 615.730469 331.097656 C 613.941406 332.042969 612.566406 333.402344 611.597656 335.179688 C 611.117188 336.015625 610.753906 336.898438 610.503906 337.832031 C 610.253906 338.761719 610.128906 339.710938 610.128906 340.675781 C 610.128906 341.640625 610.253906 342.585938 610.503906 343.519531 C 610.753906 344.453125 611.117188 345.335938 611.597656 346.171875 C 612.5625 347.929688 613.925781 349.292969 615.6875 350.257812 C 616.519531 350.734375 617.402344 351.097656 618.332031 351.34375 C 619.261719 351.589844 620.207031 351.714844 621.167969 351.714844 C 622.128906 351.714844 623.074219 351.589844 624.003906 351.34375 C 624.933594 351.097656 625.816406 350.734375 626.648438 350.257812 C 628.417969 349.300781 629.777344 347.941406 630.730469 346.171875 C 631.683594 344.472656 632.160156 342.648438 632.15625 340.699219 C 632.15625 338.730469 631.660156 336.890625 630.671875 335.1875 Z M 629.117188 345.277344 C 628.316406 346.738281 627.183594 347.867188 625.722656 348.660156 C 625.027344 349.066406 624.292969 349.375 623.515625 349.585938 C 622.742188 349.796875 621.949219 349.902344 621.148438 349.902344 C 620.34375 349.902344 619.550781 349.796875 618.777344 349.585938 C 618 349.375 617.265625 349.066406 616.570312 348.660156 C 615.101562 347.867188 613.964844 346.738281 613.152344 345.277344 C 612.753906 344.582031 612.449219 343.84375 612.242188 343.066406 C 612.035156 342.289062 611.933594 341.496094 611.933594 340.691406 C 611.933594 339.886719 612.035156 339.097656 612.242188 338.320312 C 612.449219 337.542969 612.753906 336.804688 613.152344 336.105469 C 613.96875 334.628906 615.117188 333.492188 616.597656 332.6875 C 618.003906 331.90625 619.507812 331.511719 621.113281 331.496094 C 622.722656 331.515625 624.230469 331.910156 625.636719 332.6875 C 627.121094 333.488281 628.28125 334.625 629.109375 336.089844 C 629.921875 337.519531 630.328125 339.050781 630.332031 340.691406 C 630.335938 342.328125 629.929688 343.859375 629.117188 345.277344 Z M 625.082031 340.898438 C 625.582031 340.179688 625.820312 339.378906 625.792969 338.503906 C 625.804688 337.894531 625.691406 337.3125 625.453125 336.753906 C 625.226562 336.226562 624.886719 335.789062 624.429688 335.433594 C 623.949219 335.054688 623.40625 334.816406 622.796875 334.722656 C 622.632812 334.722656 622.476562 334.679688 622.328125 334.671875 L 617.242188 334.671875 L 617.242188 346.714844 L 618.859375 346.714844 L 618.859375 342.3125 L 622.226562 342.3125 L 624.367188 346.71875 L 626.207031 346.71875 L 623.867188 341.925781 C 624.363281 341.691406 624.765625 341.347656 625.082031 340.898438 Z M 622.597656 340.679688 C 622.484375 340.707031 622.371094 340.726562 622.257812 340.734375 C 622.144531 340.742188 622.035156 340.742188 621.925781 340.734375 L 618.882812 340.734375 L 618.882812 336.242188 L 621.925781 336.242188 C 622.035156 336.234375 622.144531 336.234375 622.257812 336.242188 C 622.371094 336.246094 622.484375 336.257812 622.597656 336.285156 C 622.929688 336.347656 623.21875 336.492188 623.46875 336.71875 C 623.699219 336.941406 623.875 337.199219 623.988281 337.496094 C 624.105469 337.8125 624.164062 338.136719 624.160156 338.472656 C 624.164062 338.804688 624.105469 339.125 623.988281 339.4375 C 623.878906 339.734375 623.703125 339.992188 623.46875 340.207031 C 623.226562 340.449219 622.9375 340.605469 622.605469 340.679688 Z M 623.875 341.917969 C 624.367188 341.6875 624.769531 341.347656 625.082031 340.898438 C 625.582031 340.179688 625.820312 339.378906 625.792969 338.503906 C 625.804688 337.894531 625.691406 337.3125 625.453125 336.753906 C 625.226562 336.226562 624.886719 335.789062 624.429688 335.433594 C 623.949219 335.054688 623.40625 334.816406 622.796875 334.722656 C 622.632812 334.722656 622.476562 334.679688 622.328125 334.671875 L 617.242188 334.671875 L 617.242188 346.714844 L 618.859375 346.714844 L 618.859375 342.3125 L 622.226562 342.3125 L 624.367188 346.71875 L 626.207031 346.71875 Z M 622.597656 340.679688 C 622.484375 340.707031 622.371094 340.726562 622.257812 340.734375 C 622.144531 340.742188 622.035156 340.742188 621.925781 340.734375 L 618.882812 340.734375 L 618.882812 336.242188 L 621.925781 336.242188 C 622.035156 336.234375 622.144531 336.234375 622.257812 336.242188 C 622.371094 336.246094 622.484375 336.257812 622.597656 336.285156 C 622.929688 336.347656 623.21875 336.492188 623.46875 336.71875 C 623.699219 336.941406 623.875 337.199219 623.988281 337.496094 C 624.105469 337.8125 624.164062 338.136719 624.160156 338.472656 C 624.164062 338.804688 624.105469 339.125 623.988281 339.4375 C 623.878906 339.734375 623.703125 339.992188 623.46875 340.207031 C 623.226562 340.449219 622.9375 340.605469 622.605469 340.679688 Z M 623.875 341.917969 C 624.367188 341.6875 624.769531 341.347656 625.082031 340.898438 C 625.582031 340.179688 625.820312 339.378906 625.792969 338.503906 C 625.804688 337.894531 625.691406 337.3125 625.453125 336.753906 C 625.226562 336.226562 624.886719 335.789062 624.429688 335.433594 C 623.949219 335.054688 623.40625 334.816406 622.796875 334.722656 C 622.632812 334.722656 622.476562 334.679688 622.328125 334.671875 L 617.242188 334.671875 L 617.242188 346.714844 L 618.859375 346.714844 L 618.859375 342.3125 L 622.226562 342.3125 L 624.367188 346.71875 L 626.207031 346.71875 Z M 622.597656 340.679688 C 622.484375 340.707031 622.371094 340.726562 622.257812 340.734375 C 622.144531 340.742188 622.035156 340.742188 621.925781 340.734375 L 618.882812 340.734375 L 618.882812 336.242188 L 621.925781 336.242188 C 622.035156 336.234375 622.144531 336.234375 622.257812 336.242188 C 622.371094 336.246094 622.484375 336.257812 622.597656 336.285156 C 622.929688 336.347656 623.21875 336.492188 623.46875 336.71875 C 623.699219 336.941406 623.875 337.199219 623.988281 337.496094 C 624.105469 337.8125 624.164062 338.136719 624.160156 338.472656 C 624.164062 338.804688 624.105469 339.125 623.988281 339.4375 C 623.878906 339.734375 623.703125 339.992188 623.46875 340.207031 C 623.226562 340.449219 622.9375 340.605469 622.605469 340.679688 Z M 623.875 341.917969 C 624.367188 341.6875 624.769531 341.347656 625.082031 340.898438 C 625.582031 340.179688 625.820312 339.378906 625.792969 338.503906 C 625.804688 337.894531 625.691406 337.3125 625.453125 336.753906 C 625.226562 336.226562 624.886719 335.789062 624.429688 335.433594 C 623.949219 335.054688 623.40625 334.816406 622.796875 334.722656 C 622.632812 334.722656 622.476562 334.679688 622.328125 334.671875 L 617.242188 334.671875 L 617.242188 346.714844 L 618.859375 346.714844 L 618.859375 342.3125 L 622.226562 342.3125 L 624.367188 346.71875 L 626.207031 346.71875 Z M 622.597656 340.679688 C 622.484375 340.707031 622.371094 340.726562 622.257812 340.734375 C 622.144531 340.742188 622.035156 340.742188 621.925781 340.734375 L 618.882812 340.734375 L 618.882812 336.242188 L 621.925781 336.242188 C 622.035156 336.234375 622.144531 336.234375 622.257812 336.242188 C 622.371094 336.246094 622.484375 336.257812 622.597656 336.285156 C 622.929688 336.347656 623.21875 336.492188 623.46875 336.71875 C 623.699219 336.941406 623.875 337.199219 623.988281 337.496094 C 624.105469 337.8125 624.164062 338.136719 624.160156 338.472656 C 624.164062 338.804688 624.105469 339.125 623.988281 339.4375 C 623.878906 339.734375 623.703125 339.992188 623.46875 340.207031 C 623.226562 340.449219 622.9375 340.605469 622.605469 340.679688 Z M 623.875 341.917969 C 624.367188 341.6875 624.769531 341.347656 625.082031 340.898438 C 625.582031 340.179688 625.820312 339.378906 625.792969 338.503906 C 625.804688 337.894531 625.691406 337.3125 625.453125 336.753906 C 625.226562 336.226562 624.886719 335.789062 624.429688 335.433594 C 623.949219 335.054688 623.40625 334.816406 622.796875 334.722656 C 622.632812 334.722656 622.476562 334.679688 622.328125 334.671875 L 617.242188 334.671875 L 617.242188 346.714844 L 618.859375 346.714844 L 618.859375 342.3125 L 622.226562 342.3125 L 624.367188 346.71875 L 626.207031 346.71875 Z M 622.597656 340.679688 C 622.484375 340.707031 622.371094 340.726562 622.257812 340.734375 C 622.144531 340.742188 622.035156 340.742188 621.925781 340.734375 L 618.882812 340.734375 L 618.882812 336.242188 L 621.925781 336.242188 C 622.035156 336.234375 622.144531 336.234375 622.257812 336.242188 C 622.371094 336.246094 622.484375 336.257812 622.597656 336.285156 C 622.929688 336.347656 623.21875 336.492188 623.46875 336.71875 C 623.699219 336.941406 623.875 337.199219 623.988281 337.496094 C 624.105469 337.8125 624.164062 338.136719 624.160156 338.472656 C 624.164062 338.804688 624.105469 339.125 623.988281 339.4375 C 623.878906 339.734375 623.703125 339.992188 623.46875 340.207031 C 623.226562 340.449219 622.9375 340.605469 622.605469 340.679688 Z M 623.875 341.917969 C 624.367188 341.6875 624.769531 341.347656 625.082031 340.898438 C 625.582031 340.179688 625.820312 339.378906 625.792969 338.503906 C 625.804688 337.894531 625.691406 337.3125 625.453125 336.753906 C 625.226562 336.226562 624.886719 335.789062 624.429688 335.433594 C 623.949219 335.054688 623.40625 334.816406 622.796875 334.722656 C 622.632812 334.722656 622.476562 334.679688 622.328125 334.671875 L 617.242188 334.671875 L 617.242188 346.714844 L 618.859375 346.714844 L 618.859375 342.3125 L 622.226562 342.3125 L 624.367188 346.71875 L 626.207031 346.71875 Z M 622.597656 340.679688 C 622.484375 340.707031 622.371094 340.726562 622.257812 340.734375 C 622.144531 340.742188 622.035156 340.742188 621.925781 340.734375 L 618.882812 340.734375 L 618.882812 336.242188 L 621.925781 336.242188 C 622.035156 336.234375 622.144531 336.234375 622.257812 336.242188 C 622.371094 336.246094 622.484375 336.257812 622.597656 336.285156 C 622.929688 336.347656 623.21875 336.492188 623.46875 336.71875 C 623.699219 336.941406 623.875 337.199219 623.988281 337.496094 C 624.105469 337.8125 624.164062 338.136719 624.160156 338.472656 C 624.164062 338.804688 624.105469 339.125 623.988281 339.4375 C 623.878906 339.734375 623.703125 339.992188 623.46875 340.207031 C 623.226562 340.449219 622.9375 340.605469 622.605469 340.679688 Z M 623.875 341.917969 C 624.367188 341.6875 624.769531 341.347656 625.082031 340.898438 C 625.582031 340.179688 625.820312 339.378906 625.792969 338.503906 C 625.804688 337.894531 625.691406 337.3125 625.453125 336.753906 C 625.226562 336.226562 624.886719 335.789062 624.429688 335.433594 C 623.949219 335.054688 623.40625 334.816406 622.796875 334.722656 C 622.632812 334.722656 622.476562 334.679688 622.328125 334.671875 L 617.242188 334.671875 L 617.242188 346.714844 L 618.859375 346.714844 L 618.859375 342.3125 L 622.226562 342.3125 L 624.367188 346.71875 L 626.207031 346.71875 Z M 622.597656 340.679688 C 622.484375 340.707031 622.371094 340.726562 622.257812 340.734375 C 622.144531 340.742188 622.035156 340.742188 621.925781 340.734375 L 618.882812 340.734375 L 618.882812 336.242188 L 621.925781 336.242188 C 622.035156 336.234375 622.144531 336.234375 622.257812 336.242188 C 622.371094 336.246094 622.484375 336.257812 622.597656 336.285156 C 622.929688 336.347656 623.21875 336.492188 623.46875 336.71875 C 623.699219 336.941406 623.875 337.199219 623.988281 337.496094 C 624.105469 337.8125 624.164062 338.136719 624.160156 338.472656 C 624.164062 338.804688 624.105469 339.125 623.988281 339.4375 C 623.878906 339.734375 623.703125 339.992188 623.46875 340.207031 C 623.226562 340.449219 622.9375 340.605469 622.605469 340.679688 Z M 623.875 341.917969 C 624.367188 341.6875 624.769531 341.347656 625.082031 340.898438 C 625.582031 340.179688 625.820312 339.378906 625.792969 338.503906 C 625.804688 337.894531 625.691406 337.3125 625.453125 336.753906 C 625.226562 336.226562 624.886719 335.789062 624.429688 335.433594 C 623.949219 335.054688 623.40625 334.816406 622.796875 334.722656 C 622.632812 334.722656 622.476562 334.679688 622.328125 334.671875 L 617.242188 334.671875 L 617.242188 346.714844 L 618.859375 346.714844 L 618.859375 342.3125 L 622.226562 342.3125 L 624.367188 346.71875 L 626.207031 346.71875 Z M 622.597656 340.679688 C 622.484375 340.707031 622.371094 340.726562 622.257812 340.734375 C 622.144531 340.742188 622.035156 340.742188 621.925781 340.734375 L 618.882812 340.734375 L 618.882812 336.242188 L 621.925781 336.242188 C 622.035156 336.234375 622.144531 336.234375 622.257812 336.242188 C 622.371094 336.246094 622.484375 336.257812 622.597656 336.285156 C 622.929688 336.347656 623.21875 336.492188 623.46875 336.71875 C 623.699219 336.941406 623.875 337.199219 623.988281 337.496094 C 624.105469 337.8125 624.164062 338.136719 624.160156 338.472656 C 624.164062 338.804688 624.105469 339.125 623.988281 339.4375 C 623.878906 339.734375 623.703125 339.992188 623.46875 340.207031 C 623.226562 340.449219 622.9375 340.605469 622.605469 340.679688 Z M 623.875 341.917969 C 624.367188 341.6875 624.769531 341.347656 625.082031 340.898438 C 625.582031 340.179688 625.820312 339.378906 625.792969 338.503906 C 625.804688 337.894531 625.691406 337.3125 625.453125 336.753906 C 625.226562 336.226562 624.886719 335.789062 624.429688 335.433594 C 623.949219 335.054688 623.40625 334.816406 622.796875 334.722656 C 622.632812 334.722656 622.476562 334.679688 622.328125 334.671875 L 617.242188 334.671875 L 617.242188 346.714844 L 618.859375 346.714844 L 618.859375 342.3125 L 622.226562 342.3125 L 624.367188 346.71875 L 626.207031 346.71875 Z M 622.597656 340.679688 C 622.484375 340.707031 622.371094 340.726562 622.257812 340.734375 C 622.144531 340.742188 622.035156 340.742188 621.925781 340.734375 L 618.882812 340.734375 L 618.882812 336.242188 L 621.925781 336.242188 C 622.035156 336.234375 622.144531 336.234375 622.257812 336.242188 C 622.371094 336.246094 622.484375 336.257812 622.597656 336.285156 C 622.929688 336.347656 623.21875 336.492188 623.46875 336.71875 C 623.699219 336.941406 623.875 337.199219 623.988281 337.496094 C 624.105469 337.8125 624.164062 338.136719 624.160156 338.472656 C 624.164062 338.804688 624.105469 339.125 623.988281 339.4375 C 623.878906 339.734375 623.703125 339.992188 623.46875 340.207031 C 623.226562 340.449219 622.9375 340.605469 622.605469 340.679688 Z M 622.597656 340.679688 " fill-opacity="1" fill-rule="nonzero"/></g><path fill="#ffffff" d="M 623.882812 341.917969 C 624.371094 341.683594 624.769531 341.34375 625.082031 340.898438 C 625.582031 340.179688 625.820312 339.378906 625.792969 338.503906 C 625.804688 337.894531 625.691406 337.3125 625.453125 336.753906 C 625.226562 336.226562 624.886719 335.789062 624.429688 335.433594 C 623.949219 335.054688 623.40625 334.816406 622.796875 334.722656 C 622.632812 334.722656 622.476562 334.679688 622.328125 334.671875 L 617.242188 334.671875 L 617.242188 346.714844 L 618.859375 346.714844 L 618.859375 342.3125 L 622.226562 342.3125 L 624.367188 346.71875 L 626.207031 346.71875 Z M 622.605469 340.679688 C 622.492188 340.707031 622.378906 340.726562 622.261719 340.734375 C 622.152344 340.742188 622.042969 340.742188 621.933594 340.734375 L 618.890625 340.734375 L 618.890625 336.242188 L 621.933594 336.242188 C 622.042969 336.234375 622.152344 336.234375 622.261719 336.242188 C 622.378906 336.246094 622.492188 336.257812 622.605469 336.285156 C 622.9375 336.347656 623.226562 336.492188 623.476562 336.71875 C 623.707031 336.941406 623.878906 337.199219 623.996094 337.496094 C 624.113281 337.8125 624.171875 338.136719 624.167969 338.472656 C 624.171875 338.804688 624.113281 339.125 623.996094 339.4375 C 623.886719 339.734375 623.710938 339.992188 623.476562 340.207031 C 623.230469 340.449219 622.941406 340.605469 622.605469 340.679688 Z M 622.605469 340.679688 " fill-opacity="1" fill-rule="nonzero"/></svg>